<svg width="24.000000" height="24.000000" viewBox="0 0 24 24" fill="none" xmlns="http://www.w3.org/2000/svg" xmlns:xlink="http://www.w3.org/1999/xlink">
	<desc>
			Created with Pixso.
	</desc>
	<defs>
		<clipPath id="clip894_2219">
			<rect id="arrow-long-left/solid" width="24.000000" height="24.000000" fill="white" fill-opacity="0"/>
		</clipPath>
	</defs>
	<rect id="arrow-long-left/solid" width="24.000000" height="24.000000" fill="#FFFFFF" fill-opacity="0"/>
	<g clip-path="url(#clip894_2219)">
		<path id="Vector" d="M7.27 7.71C7.41 7.86 7.49 8.05 7.49 8.25C7.49 8.44 7.41 8.63 7.27 8.78L4.8 11.25L21 11.25C21.19 11.25 21.38 11.32 21.52 11.46C21.66 11.61 21.75 11.8 21.75 12C21.75 12.19 21.66 12.38 21.52 12.53C21.38 12.67 21.19 12.75 21 12.75L4.8 12.75L7.27 15.22C7.35 15.28 7.41 15.37 7.45 15.46C7.49 15.55 7.51 15.65 7.51 15.75C7.51 15.85 7.5 15.95 7.46 16.04C7.42 16.14 7.36 16.22 7.29 16.29C7.22 16.37 7.14 16.42 7.04 16.46C6.95 16.5 6.85 16.52 6.75 16.51C6.65 16.51 6.55 16.49 6.46 16.45C6.37 16.41 6.28 16.35 6.21 16.28L2.46 12.53C2.32 12.38 2.25 12.19 2.25 12C2.25 11.8 2.32 11.61 2.46 11.47L6.21 7.71C6.35 7.57 6.55 7.5 6.75 7.5C6.94 7.5 7.13 7.57 7.27 7.71Z" fill="#F4F4F4" fill-opacity="1.000000" fill-rule="evenodd"/>
	</g>
</svg>
