<svg width="16.000000" height="16.000000" viewBox="0 0 16 16" fill="none" xmlns="http://www.w3.org/2000/svg" xmlns:xlink="http://www.w3.org/1999/xlink">
	<desc>
			Created with Pixso.
	</desc>
	<defs>
		<clipPath id="clip894_2253">
			<rect id="edit-2" width="16.000000" height="16.000000" fill="white" fill-opacity="0"/>
		</clipPath>
	</defs>
	<rect id="edit-2" width="16.000000" height="16.000000" fill="#FFFFFF" fill-opacity="0"/>
	<g clip-path="url(#clip894_2253)">
		<path id="Vector" d="M11.94 1.59C12.17 1.49 12.41 1.44 12.66 1.44C12.91 1.44 13.16 1.49 13.38 1.59C13.61 1.68 13.82 1.82 14 2C14.17 2.17 14.31 2.38 14.41 2.61C14.5 2.84 14.55 3.08 14.55 3.33C14.55 3.58 14.5 3.82 14.41 4.05C14.31 4.28 14.17 4.49 14 4.66L5 13.66L1.33 14.66L2.33 11L11.33 2C11.5 1.82 11.71 1.68 11.94 1.59Z" stroke="#F4F4F4" stroke-opacity="1.000000" stroke-width="1.500000" stroke-linejoin="round"/>
	</g>
</svg>
