<svg width="18.000000" height="18.000000" viewBox="0 0 18 18" fill="none" xmlns="http://www.w3.org/2000/svg" xmlns:xlink="http://www.w3.org/1999/xlink">
	<desc>
			Created with Pixso.
	</desc>
	<defs>
		<clipPath id="clip894_2207">
			<rect id="eye-off" width="18.000000" height="18.000000" fill="white" fill-opacity="0"/>
		</clipPath>
	</defs>
	<rect id="eye-off" width="18.000000" height="18.000000" fill="#FFFFFF" fill-opacity="0"/>
	<g clip-path="url(#clip894_2207)">
		<path id="Vector" d="M13.45 13.45C12.17 14.43 10.61 14.97 9 15C3.75 15 0.75 9 0.75 9C1.68 7.26 2.97 5.74 4.54 4.54M7.42 3.17C7.94 3.05 8.47 2.99 9 3C14.25 3 17.25 9 17.25 9C16.79 9.85 16.25 10.65 15.63 11.39M10.58 10.59C10.38 10.81 10.13 10.98 9.85 11.11C9.58 11.23 9.28 11.3 8.98 11.3C8.68 11.31 8.38 11.25 8.1 11.14C7.82 11.02 7.56 10.86 7.35 10.64C7.13 10.43 6.97 10.17 6.85 9.89C6.74 9.61 6.68 9.31 6.69 9.01C6.69 8.71 6.76 8.41 6.88 8.14C7.01 7.86 7.18 7.61 7.41 7.4" stroke="#F4F4F4" stroke-opacity="1.000000" stroke-width="1.500000" stroke-linejoin="round"/>
		<path id="Vector" d="M0.75 0.75L17.25 17.25" stroke="#F4F4F4" stroke-opacity="1.000000" stroke-width="1.500000" stroke-linejoin="round" stroke-linecap="round"/>
	</g>
</svg>
