<svg width="20.000000" height="20.000000" viewBox="0 0 20 20" fill="none" xmlns="http://www.w3.org/2000/svg" xmlns:xlink="http://www.w3.org/1999/xlink">
	<desc>
			Created with Pixso.
	</desc>
	<defs>
		<clipPath id="clip894_2205">
			<rect id="heart" width="20.000000" height="20.000000" fill="white" fill-opacity="0"/>
		</clipPath>
	</defs>
	<rect id="heart" width="20.000000" height="20.000000" fill="#FFFFFF" fill-opacity="0"/>
	<g clip-path="url(#clip894_2205)">
		<path id="Vector" d="M15.88 2.84C15.32 2.61 14.72 2.49 14.12 2.49C13.52 2.49 12.92 2.61 12.37 2.84C11.81 3.07 11.3 3.41 10.88 3.84L10 4.72L9.11 3.84C8.25 2.98 7.09 2.49 5.87 2.49C4.66 2.49 3.49 2.98 2.63 3.84C1.77 4.7 1.29 5.86 1.29 7.08C1.29 8.29 1.77 9.46 2.63 10.32L3.51 11.2L10 17.69L16.48 11.2L17.36 10.32C17.79 9.89 18.13 9.39 18.36 8.83C18.59 8.28 18.71 7.68 18.71 7.08C18.71 6.48 18.59 5.88 18.36 5.32C18.13 4.77 17.79 4.26 17.36 3.84C16.94 3.41 16.43 3.07 15.88 2.84Z" stroke="#F4F4F4" stroke-opacity="1.000000" stroke-width="1.500000" stroke-linejoin="round"/>
	</g>
</svg>
