<svg width="20.000000" height="20.000000" viewBox="0 0 20 20" fill="none" xmlns="http://www.w3.org/2000/svg" xmlns:xlink="http://www.w3.org/1999/xlink">
	<desc>
			Created with Pixso.
	</desc>
	<defs>
		<clipPath id="clip894_2200">
			<rect id="users" width="20.000000" height="20.000000" fill="white" fill-opacity="0"/>
		</clipPath>
	</defs>
	<rect id="users" width="20.000000" height="20.000000" fill="#FFFFFF" fill-opacity="0"/>
	<g clip-path="url(#clip894_2200)">
		<path id="Vector" d="M14.16 17.5L14.16 15.83C14.16 14.94 13.81 14.1 13.19 13.47C12.56 12.85 11.71 12.5 10.83 12.5L4.16 12.5C3.28 12.5 2.43 12.85 1.81 13.47C1.18 14.1 0.83 14.94 0.83 15.83L0.83 17.5" stroke="#F4F4F4" stroke-opacity="1.000000" stroke-width="1.500000" stroke-linejoin="round" stroke-linecap="round"/>
		<path id="Vector" d="M7.5 9.16C5.65 9.16 4.16 7.67 4.16 5.83C4.16 3.99 5.65 2.5 7.5 2.5C9.33 2.5 10.83 3.99 10.83 5.83C10.83 7.67 9.33 9.16 7.5 9.16Z" stroke="#F4F4F4" stroke-opacity="1.000000" stroke-width="1.500000" stroke-linejoin="round"/>
		<path id="Vector" d="M19.16 17.5L19.16 15.83C19.16 15.09 18.91 14.37 18.46 13.79C18.01 13.21 17.38 12.79 16.66 12.6" stroke="#F4F4F4" stroke-opacity="1.000000" stroke-width="1.500000" stroke-linejoin="round" stroke-linecap="round"/>
		<path id="Vector" d="M13.33 2.6C14.05 2.79 14.68 3.2 15.14 3.79C15.59 4.37 15.83 5.09 15.83 5.83C15.83 6.57 15.59 7.29 15.14 7.88C14.68 8.46 14.05 8.88 13.33 9.06" stroke="#F4F4F4" stroke-opacity="1.000000" stroke-width="1.500000" stroke-linejoin="round" stroke-linecap="round"/>
	</g>
</svg>
