<!-- Generated by IcoMoon.io -->
<svg version="1.1" xmlns="http://www.w3.org/2000/svg" width="32" height="32" viewBox="0 0 32 32">
<title>arrow-long-left_solid</title>
<path fill="#f4f4f4" d="M9.693 10.28c0.187 0.2 0.293 0.453 0.293 0.72 0 0.253-0.107 0.507-0.293 0.707l-3.293 3.293h21.6c0.253 0 0.507 0.093 0.693 0.28 0.187 0.2 0.307 0.453 0.307 0.72 0 0.253-0.12 0.507-0.307 0.707-0.187 0.187-0.44 0.293-0.693 0.293h-21.6l3.293 3.293c0.107 0.080 0.187 0.2 0.24 0.32s0.080 0.253 0.080 0.387c0 0.133-0.013 0.267-0.067 0.387-0.053 0.133-0.133 0.24-0.227 0.333-0.093 0.107-0.2 0.173-0.333 0.227-0.12 0.053-0.253 0.080-0.387 0.067-0.133 0-0.267-0.027-0.387-0.080s-0.24-0.133-0.333-0.227l-5-5c-0.187-0.2-0.28-0.453-0.28-0.707 0-0.267 0.093-0.52 0.28-0.707l5-5.013c0.187-0.187 0.453-0.28 0.72-0.28 0.253 0 0.507 0.093 0.693 0.28z"></path>
</svg>
