<!-- Generated by IcoMoon.io -->
<svg version="1.1" xmlns="http://www.w3.org/2000/svg" width="32" height="32" viewBox="0 0 32 32">
<title>eye-off</title>
<path fill="none" stroke="#f4f4f4" stroke-linejoin="round" stroke-linecap="butt" stroke-miterlimit="4" stroke-width="2.6667" d="M23.911 23.911c-2.276 1.742-5.049 2.702-7.911 2.756-9.333 0-14.667-10.667-14.667-10.667 1.653-3.093 3.947-5.796 6.738-7.929M13.191 5.636c0.924-0.213 1.867-0.32 2.809-0.302 9.333 0 14.667 10.667 14.667 10.667-0.818 1.511-1.778 2.933-2.88 4.249M18.809 18.827c-0.356 0.391-0.8 0.693-1.298 0.924-0.48 0.213-1.013 0.338-1.547 0.338-0.533 0.018-1.067-0.089-1.564-0.284-0.498-0.213-0.96-0.498-1.333-0.889-0.391-0.373-0.676-0.836-0.889-1.333-0.196-0.498-0.302-1.031-0.284-1.564 0-0.533 0.124-1.067 0.338-1.547 0.231-0.498 0.533-0.942 0.942-1.316"></path>
<path fill="none" stroke="#f4f4f4" stroke-linejoin="round" stroke-linecap="round" stroke-miterlimit="4" stroke-width="2.6667" d="M1.333 1.333l29.333 29.333"></path>
</svg>
