<!-- Generated by IcoMoon.io -->
<svg version="1.1" xmlns="http://www.w3.org/2000/svg" width="32" height="32" viewBox="0 0 32 32">
<title>heart</title>
<path fill="none" stroke="#f4f4f4" stroke-linejoin="round" stroke-linecap="butt" stroke-miterlimit="4" stroke-width="2.4" d="M25.408 4.544c-0.896-0.368-1.856-0.56-2.816-0.56s-1.92 0.192-2.8 0.56c-0.896 0.368-1.712 0.912-2.384 1.6l-1.408 1.408-1.424-1.408c-1.376-1.376-3.232-2.16-5.184-2.16-1.936 0-3.808 0.784-5.184 2.16s-2.144 3.232-2.144 5.184c0 1.936 0.768 3.808 2.144 5.184l11.792 11.792 11.776-11.792c0.688-0.688 1.232-1.488 1.6-2.384 0.368-0.88 0.56-1.84 0.56-2.8s-0.192-1.92-0.56-2.816c-0.368-0.88-0.912-1.696-1.6-2.368-0.672-0.688-1.488-1.232-2.368-1.6z"></path>
</svg>
