<!-- Generated by IcoMoon.io -->
<svg version="1.1" xmlns="http://www.w3.org/2000/svg" width="32" height="32" viewBox="0 0 32 32">
<title>trash-2</title>
<path fill="none" stroke="#f4f4f4" stroke-linejoin="round" stroke-linecap="round" stroke-miterlimit="4" stroke-width="2.6" d="M4 8h24"></path>
<path fill="none" stroke="#f4f4f4" stroke-linejoin="round" stroke-linecap="butt" stroke-miterlimit="4" stroke-width="2.6" d="M25.32 8v18.66c0 0.7-0.28 1.38-0.78 1.88s-1.18 0.78-1.88 0.78h-13.34c-0.7 0-1.38-0.28-1.88-0.78s-0.78-1.18-0.78-1.88v-18.66M10.66 8v-2.68c0-0.7 0.28-1.38 0.78-1.88s1.18-0.78 1.88-0.78h5.34c0.7 0 1.38 0.28 1.88 0.78s0.78 1.18 0.78 1.88v2.68"></path>
<path fill="none" stroke="#f4f4f4" stroke-linejoin="round" stroke-linecap="round" stroke-miterlimit="4" stroke-width="2.6" d="M13.32 14.66v8"></path>
<path fill="none" stroke="#f4f4f4" stroke-linejoin="round" stroke-linecap="round" stroke-miterlimit="4" stroke-width="2.6" d="M18.66 14.66v8"></path>
</svg>
