<!-- Generated by IcoMoon.io -->
<svg version="1.1" xmlns="http://www.w3.org/2000/svg" width="32" height="32" viewBox="0 0 32 32">
<title>users</title>
<path fill="none" stroke="#f4f4f4" stroke-linejoin="round" stroke-linecap="round" stroke-miterlimit="4" stroke-width="2.4" d="M22.656 28v-2.672c0-1.424-0.56-2.768-1.552-3.776-1.008-0.992-2.368-1.552-3.776-1.552h-10.672c-1.408 0-2.768 0.56-3.76 1.552-1.008 1.008-1.568 2.352-1.568 3.776v2.672"></path>
<path fill="none" stroke="#f4f4f4" stroke-linejoin="round" stroke-linecap="butt" stroke-miterlimit="4" stroke-width="2.4" d="M12 14.656c-2.96 0-5.344-2.384-5.344-5.328s2.384-5.328 5.344-5.328c2.928 0 5.328 2.384 5.328 5.328s-2.4 5.328-5.328 5.328z"></path>
<path fill="none" stroke="#f4f4f4" stroke-linejoin="round" stroke-linecap="round" stroke-miterlimit="4" stroke-width="2.4" d="M30.656 28v-2.672c0-1.184-0.4-2.336-1.12-3.264s-1.728-1.6-2.88-1.904"></path>
<path fill="none" stroke="#f4f4f4" stroke-linejoin="round" stroke-linecap="round" stroke-miterlimit="4" stroke-width="2.4" d="M21.328 4.16c1.152 0.304 2.16 0.96 2.896 1.904 0.72 0.928 1.104 2.080 1.104 3.264s-0.384 2.336-1.104 3.28c-0.736 0.928-1.744 1.6-2.896 1.888"></path>
</svg>
